<svg width="512" height="512" viewBox="0 0 512 512" fill="none" xmlns="http://www.w3.org/2000/svg">
<path d="M256.238 116.9C255.223 116.9 254.218 116.7 253.281 116.312C252.343 115.924 251.491 115.355 250.774 114.637C250.056 113.92 249.487 113.068 249.099 112.13C248.711 111.193 248.511 110.188 248.511 109.173V27.23C248.534 25.196 249.358 23.2532 250.805 21.8231C252.251 20.393 254.203 19.5909 256.237 19.5909C258.272 19.5909 260.224 20.393 261.67 21.8231C263.117 23.2532 263.941 25.196 263.964 27.23V109.175C263.963 111.224 263.149 113.188 261.7 114.637C260.251 116.085 258.287 116.899 256.238 116.9Z" fill="#515C80"/>
<path d="M271.379 80.449H241.1C239.391 80.4495 237.752 81.1287 236.543 82.3373C235.335 83.5458 234.656 85.1848 234.655 86.894V164.156H277.82V86.895C277.82 86.0488 277.654 85.2108 277.331 84.4289C277.007 83.647 276.533 82.9365 275.935 82.3379C275.337 81.7393 274.626 81.2644 273.845 80.9403C273.063 80.6162 272.225 80.4493 271.379 80.449Z" fill="#FFB1BC"/>
<path d="M256.238 0C250.02 3.08437 244.786 7.84424 241.128 13.7432C237.469 19.6421 235.531 26.4456 235.531 33.387C235.531 33.996 235.547 34.606 235.574 35.207C236.808 60.879 275.664 60.879 276.898 35.207C276.929 34.607 276.941 33.996 276.941 33.387C276.943 26.4458 275.006 19.6421 271.348 13.743C267.69 7.84389 262.456 3.084 256.238 0V0Z" fill="#FFD35B"/>
<path d="M245.875 24.906C245.848 24.301 245.832 23.695 245.832 23.086C245.827 15.713 248.02 8.50588 252.132 2.38599C247.025 5.78515 242.837 10.3939 239.941 15.8023C237.045 21.2107 235.53 27.251 235.532 33.386C235.532 33.995 235.548 34.605 235.575 35.206C236.68 58.194 267.938 60.581 275.348 42.394C263.414 47.438 246.68 41.613 245.875 24.906Z" fill="#FFBF50"/>
<path d="M53.066 375.641V475.961C53.0659 480.694 53.998 485.38 55.8091 489.753C57.6202 494.125 60.2748 498.098 63.6213 501.445C66.9679 504.791 70.9408 507.446 75.3134 509.257C79.6859 511.068 84.3723 512 89.105 512H423.367C428.1 512 432.786 511.068 437.159 509.257C441.531 507.446 445.504 504.791 448.851 501.445C452.197 498.098 454.852 494.125 456.663 489.753C458.474 485.38 459.406 480.694 459.406 475.961V375.641H53.066Z" fill="#FFF2D2"/>
<path d="M83.973 475.965V375.641H53.066V475.965C53.0668 485.523 56.8642 494.688 63.6227 501.446C70.3813 508.204 79.5475 512 89.105 512H120.012C110.455 512 101.288 508.204 94.5297 501.446C87.7712 494.688 83.9738 485.523 83.973 475.965Z" fill="#F7E491"/>
<path d="M399.293 240.086V315L256.238 343.777L113.184 315V240.086L148.598 204.676H365.188L399.293 240.086Z" fill="#FFF2D2"/>
<path d="M144.09 315V240.086L179.5 204.676H148.6L113.186 240.086V315L256.241 343.777L271.694 340.668L144.09 315Z" fill="#F7E491"/>
<path d="M427.035 315H85.441C80.6557 315 75.9172 315.942 71.496 317.773C67.0749 319.604 63.0577 322.288 59.6738 325.672C56.2899 329.055 53.6056 333.072 51.7742 337.493C49.9428 341.914 49.0001 346.653 49 351.438V374.922C49.0174 377.921 49.668 380.883 50.9094 383.614C52.1508 386.344 53.9549 388.782 56.2036 390.767C58.4523 392.752 61.0948 394.24 63.9583 395.133C66.8218 396.026 69.8416 396.304 72.82 395.949C85.2401 394.615 97.7401 397.606 108.211 404.418C117.022 410.148 127.306 413.199 137.816 413.199C148.327 413.199 158.611 410.148 167.422 404.418C176.233 398.69 186.518 395.641 197.027 395.641C207.537 395.641 217.822 398.69 226.633 404.418C235.444 410.148 245.728 413.199 256.238 413.199C266.749 413.199 277.033 410.148 285.844 404.418C294.655 398.69 304.94 395.641 315.449 395.641C325.959 395.641 336.243 398.69 345.055 404.418C353.866 410.148 364.15 413.199 374.66 413.199C385.171 413.199 395.455 410.148 404.266 404.418C414.737 397.606 427.237 394.615 439.657 395.949C442.635 396.303 445.655 396.024 448.518 395.131C451.381 394.238 454.023 392.75 456.272 390.765C458.52 388.78 460.324 386.343 461.566 383.613C462.808 380.883 463.459 377.921 463.477 374.922V351.438C463.477 346.653 462.534 341.914 460.703 337.493C458.871 333.072 456.187 329.055 452.803 325.671C449.419 322.288 445.402 319.604 440.98 317.773C436.559 315.942 431.82 315 427.035 315Z" fill="#EDA1AB"/>
<path d="M79.906 395.527V351.437C79.9068 341.773 83.7466 332.504 90.5808 325.671C97.415 318.838 106.684 314.999 116.348 315H85.441C75.7769 315.001 66.5088 318.84 59.675 325.673C52.8412 332.506 49.0013 341.774 49 351.438V374.922C49.0174 377.921 49.668 380.883 50.9094 383.614C52.1508 386.344 53.9549 388.782 56.2036 390.767C58.4523 392.752 61.0948 394.24 63.9583 395.133C66.8218 396.026 69.8416 396.304 72.82 395.949C75.1747 395.7 77.5429 395.604 79.91 395.66C79.91 395.617 79.906 395.57 79.906 395.527Z" fill="#E26E7E"/>
<path d="M367.824 151.52H144.652C134.987 151.521 125.719 155.36 118.885 162.194C112.051 169.028 108.211 178.296 108.211 187.961V230.661C108.219 234.137 109.301 237.526 111.307 240.364C113.314 243.203 116.148 245.352 119.422 246.52C127.31 249.358 135.749 250.332 144.076 249.365C152.403 248.398 160.394 245.516 167.422 240.946C175.291 233.126 185.934 228.737 197.027 228.737C208.121 228.737 218.764 233.126 226.633 240.946C234.5 248.769 245.144 253.16 256.238 253.16C267.333 253.16 277.977 248.769 285.844 240.946C293.713 233.126 304.356 228.737 315.449 228.737C326.543 228.737 337.186 233.126 345.055 240.946C352.083 245.516 360.073 248.398 368.401 249.365C376.728 250.332 385.167 249.358 393.055 246.52C396.329 245.353 399.163 243.203 401.17 240.364C403.176 237.526 404.258 234.137 404.266 230.661V187.961C404.265 178.296 400.426 169.028 393.592 162.194C386.758 155.36 377.489 151.52 367.824 151.52Z" fill="#EDA1AB"/>
<path d="M150.328 246.516C147.053 245.349 144.219 243.2 142.212 240.361C140.205 237.522 139.124 234.133 139.117 230.657V187.957C139.117 183.171 140.059 178.433 141.891 174.011C143.722 169.59 146.406 165.573 149.79 162.189C153.174 158.805 157.191 156.121 161.612 154.29C166.034 152.458 170.772 151.516 175.558 151.516H144.652C134.987 151.517 125.719 155.356 118.885 162.19C112.051 169.024 108.211 178.292 108.211 187.957V230.657C108.218 234.133 109.299 237.522 111.306 240.361C113.313 243.2 116.147 245.349 119.422 246.516C130.312 250.431 142.167 250.768 153.262 247.477C152.277 247.184 151.3 246.863 150.328 246.516Z" fill="#E26E7E"/>
<path d="M152.164 459.453C152.164 462.697 151.202 465.867 149.4 468.564C147.598 471.261 145.037 473.363 142.04 474.605C139.043 475.846 135.746 476.171 132.565 475.538C129.383 474.905 126.461 473.343 124.167 471.05C121.874 468.756 120.312 465.834 119.679 462.652C119.046 459.471 119.371 456.174 120.612 453.177C121.854 450.18 123.956 447.619 126.653 445.817C129.35 444.015 132.52 443.053 135.764 443.053C140.114 443.053 144.285 444.781 147.361 447.856C150.436 450.932 152.164 455.103 152.164 459.453Z" fill="#FF8C72"/>
<path d="M214.172 274.227C214.172 277.471 213.21 280.641 211.408 283.338C209.606 286.035 207.045 288.137 204.048 289.379C201.051 290.62 197.754 290.945 194.572 290.312C191.391 289.679 188.469 288.117 186.175 285.824C183.882 283.53 182.32 280.608 181.687 277.426C181.054 274.245 181.379 270.948 182.62 267.951C183.862 264.954 185.964 262.393 188.661 260.591C191.358 258.789 194.528 257.827 197.772 257.827C202.122 257.827 206.293 259.555 209.369 262.63C212.444 265.706 214.172 269.877 214.172 274.227Z" fill="#FFD35B"/>
<path d="M331.109 274.227C331.109 277.471 330.147 280.641 328.345 283.338C326.543 286.035 323.982 288.137 320.985 289.379C317.988 290.62 314.691 290.945 311.509 290.312C308.328 289.679 305.406 288.117 303.112 285.824C300.819 283.53 299.257 280.608 298.624 277.426C297.991 274.245 298.316 270.948 299.557 267.951C300.799 264.954 302.901 262.393 305.598 260.591C308.295 258.789 311.465 257.827 314.709 257.827C319.059 257.827 323.23 259.555 326.306 262.63C329.381 265.706 331.109 269.877 331.109 274.227Z" fill="#FF8C72"/>
<path d="M393.117 459.453C393.117 462.697 392.155 465.867 390.353 468.564C388.551 471.261 385.99 473.363 382.993 474.605C379.996 475.846 376.699 476.171 373.518 475.538C370.336 474.905 367.414 473.343 365.12 471.05C362.827 468.756 361.265 465.834 360.632 462.652C359.999 459.471 360.324 456.174 361.565 453.177C362.807 450.18 364.909 447.619 367.606 445.817C370.303 444.015 373.473 443.053 376.717 443.053C381.067 443.053 385.238 444.781 388.314 447.856C391.389 450.932 393.117 455.103 393.117 459.453Z" fill="#FF8C72"/>
<path d="M272.641 459.453C272.641 462.697 271.679 465.867 269.877 468.564C268.075 471.261 265.514 473.363 262.517 474.605C259.52 475.846 256.223 476.171 253.042 475.538C249.86 474.905 246.938 473.343 244.645 471.05C242.351 468.756 240.789 465.834 240.156 462.652C239.523 459.471 239.848 456.174 241.089 453.177C242.331 450.18 244.433 447.619 247.13 445.817C249.827 444.015 252.997 443.053 256.241 443.053C260.591 443.053 264.762 444.781 267.838 447.856C270.913 450.932 272.641 455.103 272.641 459.453Z" fill="#FFD35B"/>
</svg>
