<?xml version="1.0" encoding="iso-8859-1"?>
<!-- Generator: Adobe Illustrator 19.0.0, SVG Export Plug-In . SVG Version: 6.00 Build 0)  -->
<svg version="1.1" id="Layer_1" xmlns="http://www.w3.org/2000/svg" xmlns:xlink="http://www.w3.org/1999/xlink" x="0px" y="0px"
	 viewBox="0 0 511.999 511.999" style="enable-background:new 0 0 511.999 511.999;" xml:space="preserve">
<g id="XMLID_1237_">
	<path id="XMLID_1291_" d="M452.962,303.828H429.33v-64.765c6.881-6.359,11.199-15.452,11.199-25.538v-50.974
		c0-10.128-8.239-18.367-18.367-18.367H372.18V85.029c0-4.143-3.358-7.5-7.5-7.5h-14.21v-2.267
		c10.821-1.213,15.972-6.585,18.409-11.183c10.169-19.193-12.287-54.008-16.892-60.792c-1.3-1.915-3.41-3.122-5.72-3.272
		c-2.307-0.144-4.558,0.774-6.095,2.505c-5.595,6.303-33.042,38.775-23.875,59.171c3.117,6.937,9.552,11.283,19.173,12.995v2.844
		h-18.8c-4.142,0-7.5,3.357-7.5,7.5v59.155h-21.66V85.029c0-4.143-3.358-7.5-7.5-7.5h-14.212v-2.267
		c10.821-1.213,15.972-6.585,18.409-11.183c10.169-19.193-12.287-54.008-16.892-60.792c-1.3-1.915-3.41-3.122-5.72-3.272
		c-2.31-0.144-4.558,0.774-6.095,2.505c-5.595,6.303-33.042,38.775-23.875,59.171c3.117,6.937,9.552,11.283,19.173,12.995v2.844
		H231.99c-4.142,0-7.5,3.357-7.5,7.5v59.155h-21.65V85.029c0-4.143-3.358-7.5-7.5-7.5h-14.215v-2.267
		c10.821-1.213,15.972-6.585,18.409-11.183c10.169-19.193-12.287-54.008-16.892-60.792c-1.3-1.915-3.41-3.122-5.72-3.272
		c-2.307-0.144-4.558,0.774-6.095,2.505c-5.595,6.303-33.042,38.775-23.875,59.171c3.117,6.937,9.552,11.283,19.173,12.995v2.844
		h-18.805c-4.142,0-7.5,3.357-7.5,7.5v16.91c0,4.143,3.358,7.5,7.5,7.5s7.5-3.357,7.5-7.5v-9.41h33.02v51.655h-33.02v-10.605
		c0-4.143-3.358-7.5-7.5-7.5s-7.5,3.357-7.5,7.5v10.605H89.837c-10.127,0-18.367,8.239-18.367,18.367v50.197
		c0,9.293,3.62,18.029,10.192,24.6c0.329,0.329,0.667,0.645,1.007,0.959v65.521H59.037c-11.238,0-20.381,9.143-20.381,20.381v59.502
		c0,10.645,4.146,20.651,11.674,28.177c0.521,0.521,1.056,1.021,1.601,1.51v91.102c0,4.143,3.358,7.5,7.5,7.5h281.24
		c4.142,0,7.5-3.357,7.5-7.5s-3.358-7.5-7.5-7.5H66.93v-10.997h378.14v10.997H372c-4.142,0-7.5,3.357-7.5,7.5s3.358,7.5,7.5,7.5
		h80.57c4.142,0,7.5-3.357,7.5-7.5v-90.208c8.141-7.3,13.274-17.89,13.274-29.659v-60.423
		C473.344,312.971,464.201,303.828,452.962,303.828z M329.979,55.544c-3.117-6.927,5.706-22.811,14.97-35.141
		c7.501,13.228,14.231,29.941,10.675,36.653c-0.805,1.519-2.545,2.532-5.154,3.052v-5.869c0-4.143-3.358-7.5-7.5-7.5
		s-7.5,3.357-7.5,7.5v5.091C332.933,58.59,330.819,57.41,329.979,55.544z M245.307,55.544c-3.117-6.927,5.706-22.811,14.97-35.141
		c7.501,13.228,14.231,29.941,10.675,36.653c-0.805,1.519-2.545,2.532-5.154,3.052v-5.869c0-4.143-3.358-7.5-7.5-7.5
		s-7.5,3.357-7.5,7.5v5.091C248.261,58.59,246.147,57.41,245.307,55.544z M160.634,55.544c-3.117-6.927,5.706-22.811,14.97-35.141
		c7.501,13.228,14.231,29.941,10.675,36.653c-0.805,1.519-2.545,2.532-5.154,3.052v-5.869c0-4.143-3.358-7.5-7.5-7.5
		s-7.5,3.357-7.5,7.5v5.091C163.588,58.59,161.474,57.41,160.634,55.544z M324.169,92.529h33.01v51.655h-33.01V92.529z
		 M239.49,92.529h33.02v51.655h-33.02V92.529z M86.47,162.552c0-1.856,1.51-3.367,3.367-3.367h332.325
		c1.856,0,3.367,1.511,3.367,3.367v50.974c0,10.909-8.875,19.784-19.784,19.784h-7.444c-10.909,0-19.784-8.875-19.784-19.784v-7.348
		c0-13.606-11.07-24.677-24.677-24.677c-13.607,0-24.678,11.07-24.678,24.677v7.348c0,10.909-8.875,19.784-19.784,19.784h-9.157
		c-10.909,0-19.784-8.875-19.784-19.784v-7.348c0-13.606-11.07-24.677-24.678-24.677h-4.712c-13.607,0-24.677,11.07-24.677,24.677
		v6.571c0,10.908-8.875,19.783-19.784,19.783h-6.532c-10.909,0-19.784-8.875-19.784-19.783v-6.571
		c0-13.606-11.07-24.677-24.677-24.677h-4.877c-13.607,0-24.678,11.07-24.678,24.677v6.571c0,10.905-8.872,19.779-19.777,19.783
		c-0.002,0-0.005,0-0.008,0c-5.283,0-10.249-2.057-13.986-5.792c-3.738-3.737-5.797-8.706-5.797-13.991V162.552z M106.252,247.532
		c0.005,0,0.01,0,0.014,0c19.173-0.006,34.772-15.61,34.772-34.783v-6.571c0-5.336,4.341-9.677,9.678-9.677h4.877
		c5.336,0,9.677,4.341,9.677,9.677v6.571c0,19.18,15.604,34.783,34.784,34.783h6.532c19.18,0,34.784-15.604,34.784-34.783v-6.571
		c0-5.336,4.341-9.677,9.677-9.677h4.712c5.336,0,9.678,4.341,9.678,9.677v7.348c0,19.18,15.604,34.784,34.784,34.784h9.157
		c19.18,0,34.784-15.604,34.784-34.784v-7.348c0-5.336,4.341-9.677,9.678-9.677c5.336,0,9.677,4.341,9.677,9.677v7.348
		c0,19.18,15.604,34.784,34.784,34.784h7.444c2.962,0,5.838-0.375,8.585-1.074v12.27H215.666c-4.142,0-7.5,3.357-7.5,7.5
		s3.358,7.5,7.5,7.5H414.33v7.554H97.669v-7.554h85.627c4.142,0,7.5-3.357,7.5-7.5s-3.358-7.5-7.5-7.5H97.669v-13.036
		C100.441,247.169,103.319,247.532,106.252,247.532z M97.669,297.059h316.66v6.77H97.669V297.059z M53.655,324.209
		c0-2.967,2.414-5.381,5.381-5.381h393.926c2.967,0,5.381,2.414,5.381,5.381v60.423c0,13.698-11.144,24.842-24.841,24.842h-8.824
		c-13.698,0-24.841-11.144-24.841-24.842v-8.709c0-15.362-12.499-27.861-27.862-27.861c-15.363,0-27.861,12.499-27.861,27.861v8.709
		c0,13.698-11.144,24.842-24.841,24.842h-10.854c-13.698,0-24.841-11.144-24.841-24.842v-8.709
		c0-15.362-12.499-27.861-27.862-27.861h-5.586c-15.363,0-27.861,12.499-27.861,27.861v7.788c0,13.698-11.144,24.842-24.841,24.842
		h-7.743c-13.698,0-24.842-11.144-24.842-24.842v-7.788c0-15.362-12.499-27.861-27.861-27.861H131.2
		c-15.363,0-27.861,12.499-27.861,27.861v7.788c0,13.693-11.14,24.837-24.833,24.842c-0.003,0-0.005,0-0.008,0
		c-6.634,0-12.872-2.583-17.563-7.273c-4.694-4.692-7.279-10.932-7.279-17.568V324.209z M66.93,471.002v-11.734h378.14v11.734H66.93
		z M445.069,444.268H66.93v-22.412c3.703,1.117,7.59,1.697,11.567,1.697c0.004,0,0.01,0,0.014,0
		c21.961-0.007,39.828-17.88,39.828-39.842v-7.788c0-7.092,5.77-12.861,12.861-12.861h5.781c7.092,0,12.861,5.77,12.861,12.861
		v7.788c0,21.969,17.873,39.842,39.842,39.842h7.743c21.969,0,39.841-17.873,39.841-39.842v-7.788
		c0-7.092,5.77-12.861,12.861-12.861h5.586c7.092,0,12.862,5.77,12.862,12.861v8.709c0,21.969,17.873,39.842,39.841,39.842h10.854
		c21.969,0,39.841-17.873,39.841-39.842v-8.709c0-7.092,5.77-12.861,12.861-12.861c7.092,0,12.862,5.77,12.862,12.861v8.709
		c0,21.969,17.873,39.842,39.841,39.842h8.824c4.022,0,7.904-0.604,11.567-1.718V444.268z"/>
	<path id="XMLID_1305_" d="M302.299,207.771h1.591c4.142,0,7.5-3.357,7.5-7.5s-3.358-7.5-7.5-7.5h-1.591c-4.142,0-7.5,3.357-7.5,7.5
		S298.157,207.771,302.299,207.771z"/>
	<path id="XMLID_1306_" d="M404.738,186.583h1.59c4.142,0,7.5-3.357,7.5-7.5s-3.358-7.5-7.5-7.5h-1.59c-4.142,0-7.5,3.357-7.5,7.5
		S400.596,186.583,404.738,186.583z"/>
	<path id="XMLID_1307_" d="M182.501,346.402h1.591c4.142,0,7.5-3.357,7.5-7.5s-3.358-7.5-7.5-7.5h-1.591c-4.142,0-7.5,3.357-7.5,7.5
		S178.359,346.402,182.501,346.402z"/>
	<path id="XMLID_1308_" d="M187.039,359.467c0,4.143,3.358,7.5,7.5,7.5h1.591c4.142,0,7.5-3.357,7.5-7.5s-3.358-7.5-7.5-7.5h-1.591
		C190.397,351.967,187.039,355.324,187.039,359.467z"/>
</g>
<g>
</g>
<g>
</g>
<g>
</g>
<g>
</g>
<g>
</g>
<g>
</g>
<g>
</g>
<g>
</g>
<g>
</g>
<g>
</g>
<g>
</g>
<g>
</g>
<g>
</g>
<g>
</g>
<g>
</g>
</svg>
